<svg width="162" height="42" viewBox="0 0 162 42" fill="none" xmlns="http://www.w3.org/2000/svg">
<path d="M50.8003 25.9847C50.8003 28.5466 50.3381 30.4026 49.4255 31.5018C48.8784 32.0706 48.2105 32.5092 47.4711 32.7852C46.7317 33.0613 45.9398 33.1676 45.1537 33.0964C44.3615 33.1752 43.5618 33.0671 42.8189 32.7809C42.076 32.4946 41.4106 32.0382 40.876 31.4483C39.856 29.8165 39.3855 27.901 39.5333 25.9823V1.32013H28.3554V26.5503C28.3554 31.541 29.8395 35.4052 32.7674 38.0324C35.6691 40.6382 39.8363 41.9596 45.1537 41.9596C50.6316 41.9596 54.8463 40.6133 57.6815 37.9564C60.5167 35.2994 61.9794 31.44 61.9794 26.523V1.32013H50.8003V25.9847ZM52.3629 2.88267H60.4169V26.5289C60.4169 30.9956 59.1371 34.4582 56.6144 36.8204C54.0918 39.1826 50.224 40.4018 45.1549 40.4018C40.2355 40.4018 36.4189 39.2135 33.8118 36.875C31.2286 34.5556 29.9191 31.0823 29.9191 26.5551V2.88267H37.9719V25.9847C37.8159 28.2474 38.3998 30.4994 39.6355 32.4013C40.3109 33.1869 41.163 33.8011 42.1219 34.1936C43.0807 34.5861 44.1189 34.7456 45.1514 34.659C46.1676 34.7371 47.1883 34.5833 48.1364 34.2093C49.0845 33.8353 49.9352 33.2508 50.6244 32.4999C51.7758 31.112 52.3593 28.9197 52.3593 25.9847L52.3629 2.88267Z" fill="#F18021"/>
<path d="M97.223 42H124.672V32.9526H108.351V24.6527H123.391V15.6065H108.351V10.3283H124.674V1.28091H97.2254L97.223 42ZM98.7856 2.86487H123.111V8.74672H106.787V17.1833H121.827V23.0652H106.787V34.5294H123.111V40.4113H98.7856V2.86487Z" fill="#F18021"/>
<path d="M138.47 34.1456H139.766C142.324 34.1456 144.033 34.129 144.987 34.0945C146.094 34.0425 147.182 33.7855 148.195 33.3364C149.163 32.9487 149.97 32.244 150.484 31.3378C150.958 30.4609 151.2 29.477 151.186 28.48C151.243 27.3382 150.94 26.2074 150.32 25.2468C149.684 24.4052 148.805 23.7796 147.801 23.4549C146.944 23.1675 146.045 23.0245 145.142 23.0319C144.11 23.007 142.725 22.9939 141.022 22.9939H138.466L138.47 34.1456ZM140.032 24.5564H141.025C142.709 24.5564 144.082 24.5695 145.107 24.5945C145.84 24.5859 146.569 24.6962 147.266 24.9212C147.975 25.1414 148.599 25.5725 149.056 26.157C149.481 26.8536 149.681 27.6643 149.63 28.4788C149.643 29.2119 149.468 29.9362 149.123 30.5832C148.774 31.1862 148.229 31.6513 147.579 31.901C146.742 32.2736 145.843 32.4876 144.928 32.532C144.025 32.5641 142.421 32.5807 140.03 32.5819L140.032 24.5564Z" fill="#F18021"/>
<path d="M159.632 22.3391C158.423 21.0261 156.904 20.037 155.214 19.4624C156.299 18.7458 157.216 17.8039 157.903 16.7009C158.928 15.0463 159.457 13.1331 159.428 11.1874C159.457 9.54189 159.075 7.91511 158.317 6.45456C157.538 5.03805 156.361 3.88119 154.931 3.12744C153.586 2.38658 152.119 1.89088 150.599 1.6635C148.441 1.40141 146.267 1.28906 144.093 1.32724H129.79V31.7762C129.312 31.946 128.907 32.2781 128.648 32.7148C128.388 33.1516 128.289 33.6654 128.369 34.1672C128.448 34.669 128.701 35.1272 129.083 35.4623C129.465 35.7974 129.952 35.9882 130.46 36.0017C130.968 36.0152 131.464 35.8506 131.864 35.5363C132.263 35.222 132.539 34.7779 132.645 34.281C132.752 33.7841 132.68 33.2658 132.444 32.8159C132.208 32.366 131.822 32.0129 131.353 31.8178V2.90167H144.093C146.19 2.86405 148.287 2.97046 150.369 3.22013C151.707 3.4206 153 3.85755 154.185 4.51057C155.35 5.12089 156.31 6.0596 156.946 7.21029C157.578 8.43901 157.894 9.80586 157.865 11.1874C157.893 12.8327 157.449 14.4515 156.586 15.8524C155.753 17.1843 154.525 18.2229 153.073 18.8231L152.598 19.0263V20.4035L153.218 20.5353C155.234 20.9084 157.08 21.9135 158.487 23.405C159.84 25.0247 160.529 27.0973 160.414 29.2048C160.45 30.8485 160.109 32.4786 159.416 33.9697C158.785 35.2842 157.866 36.4391 156.726 37.348C155.406 38.4144 153.886 39.2048 152.254 39.6722C150.177 40.1909 148.039 40.4279 145.898 40.3768H130.674V41.9655H145.895C148.177 42.0166 150.455 41.7596 152.668 41.2014C154.497 40.6786 156.203 39.7932 157.684 38.598C159.006 37.5421 160.074 36.2018 160.807 34.6768C161.607 32.9674 162.003 31.0975 161.967 29.2108C162.091 26.7067 161.256 24.2496 159.632 22.3391Z" fill="#F18021"/>
<path d="M91.5965 40.3804H67.6045V2.9017H75.6573V34.5092H82.2509C82.4358 34.8542 82.7109 35.1426 83.0467 35.3437C83.3826 35.5447 83.7666 35.6509 84.1581 35.6509C84.5495 35.6509 84.9336 35.5447 85.2694 35.3437C85.6053 35.1426 85.8803 34.8542 86.0652 34.5092L86.2102 34.1599C86.2865 33.9425 86.3266 33.7141 86.329 33.4838C86.33 32.9579 86.1395 32.4497 85.7929 32.0543C85.4463 31.6588 84.9676 31.4031 84.4461 31.3351C83.9247 31.2671 83.3964 31.3914 82.9599 31.6847C82.5235 31.9781 82.209 32.4203 82.0751 32.9288H77.2234V1.32132H66.0443V41.9655H93.1615V32.9348H91.5989L91.5965 40.3804Z" fill="#F18021"/>
<path d="M20.0815 2.88743C20.2468 3.36861 20.5753 3.77677 21.01 4.04117C21.4447 4.30556 21.9582 4.40952 22.4615 4.33504C22.9648 4.26056 23.4262 4.01234 23.7656 3.63337C24.1051 3.25441 24.3013 2.7686 24.3202 2.26016C24.3391 1.75173 24.1795 1.25271 23.8691 0.849602C23.5586 0.446495 23.1169 0.164713 22.6206 0.0530932C22.1242 -0.0585261 21.6044 0.00705297 21.1513 0.238468C20.6981 0.469882 20.3403 0.852548 20.1397 1.32013H4.34662V9.86485H13.1136V24.5041C13.1136 25.835 13.0922 27.072 13.0506 28.1806C13.0311 29.0946 12.8291 29.9955 12.4565 30.8304C12.1365 31.5458 11.5743 32.1252 10.869 32.4666C9.74803 32.9501 8.53022 33.1669 7.31132 33.1C6.29797 33.129 5.28593 33.0069 4.3086 32.7375C3.49108 32.4773 2.69615 32.1922 1.94636 31.8915L0 31.8273V41.0577L0.619075 41.1896C1.94897 41.4614 3.29419 41.6519 4.64725 41.76C6.15396 41.8907 7.78661 41.956 9.49651 41.956C11.6198 41.9876 13.7357 41.6967 15.7717 41.0933C17.5661 40.5412 19.218 39.6031 20.6115 38.3449C21.847 37.2318 22.799 35.8398 23.3884 34.2846C23.9938 32.688 24.2992 30.9932 24.2891 29.2857V9.72109H22.7265V29.2892C22.7365 30.8038 22.4665 32.3072 21.9304 33.7238C21.4281 35.0499 20.6166 36.2369 19.5634 37.1864C18.3369 38.293 16.8828 39.1176 15.3035 39.6021C13.419 40.1579 11.461 40.4247 9.49651 40.3935C7.82107 40.3935 6.23596 40.3293 4.78153 40.2034C3.60398 40.1012 2.52385 39.9657 1.56256 39.7839V33.4291C2.29096 33.7167 3.055 33.9876 3.83568 34.2359C4.96573 34.5552 6.1374 34.7027 7.31132 34.6732C8.78168 34.748 10.2485 34.4692 11.589 33.8604C12.6042 33.3581 13.4126 32.5178 13.8752 31.4839C14.3314 30.4647 14.5794 29.3647 14.6048 28.2483C14.6476 27.1302 14.669 25.8718 14.669 24.5113V8.29754H5.90918V2.88743H20.0815Z" fill="#F18021"/>
<path d="M146.351 17.9366C147.179 17.501 147.833 16.7959 148.205 15.938C148.594 15.0363 148.788 14.0623 148.773 13.0803C148.824 11.9599 148.582 10.8455 148.072 9.847C147.602 9.04646 146.886 8.41859 146.031 8.05632C145.349 7.77163 144.616 7.62774 143.877 7.6333C143.045 7.60834 141.919 7.59528 140.541 7.59528H138.471V18.747H139.521C141.593 18.747 142.977 18.7304 143.75 18.6959C144.663 18.6398 145.551 18.3804 146.351 17.9366ZM139.736 17.1833V9.15783H140.541C141.905 9.15783 143.016 9.1709 143.846 9.19585C144.445 9.18838 145.04 9.29942 145.595 9.52262C146.198 9.76871 146.706 10.2019 147.044 10.7584C147.394 11.4802 147.554 12.2794 147.508 13.0803C147.521 13.8023 147.381 14.519 147.099 15.1835C146.847 15.7533 146.406 16.2188 145.851 16.5012C145.191 16.8685 144.457 17.0841 143.704 17.1322C142.972 17.1655 141.673 17.1809 139.733 17.1833H139.736Z" fill="#F18021"/>
</svg>
